<?xml version="1.0" encoding="UTF-8"?>
<svg id="Layer_1" xmlns="http://www.w3.org/2000/svg" version="1.1" viewBox="0 0 1920 1080">
  <!-- Generator: Adobe Illustrator 29.0.1, SVG Export Plug-In . SVG Version: 2.1.0 Build 192)  -->
  <defs>
    <style>
      .st0 {
        fill: #231f20;
      }

      .st1 {
        fill: #fff;
      }

      .st2 {
        fill: #ec1b2e;
      }
    </style>
  </defs>
  <path class="st2" d="M960,696.4c-89.6,0-162.5-72.9-162.5-162.5s72.9-162.5,162.5-162.5,162.5,72.9,162.5,162.5-72.9,162.5-162.5,162.5Z"/>
  <g>
    <path class="st0" d="M1168.4,850.7h.9v.7c0,4.7,2.2,7.1,6.5,7.1s7.5-2.8,7.5-6.8-.6-3.1-1.6-4.4c-.7-.8-1.6-1.6-2.6-2.1l-1.5-.8-1.5-.8-1.5-.8c-2.8-1.5-4.3-3.8-4.3-6.6,0-5.1,4.5-9.1,10.3-9.1s4.8.5,6.8,1.3c-.8,2.7-1.1,3.7-1.8,6.5h-.9c.1-1.3.1-1.5.1-2.1,0-2.7-2-4.5-4.9-4.5s-6.2,2.4-6.2,6.1.6,2.8,1.9,4c.5.4,1.1.8,1.6,1.1l1.7.9,1.7.9,1.7.9c3.1,1.6,4.8,4.2,4.8,7.4s-2.2,7-5.4,8.8c-2,1.1-3.9,1.5-7.1,1.5h-.2l-1.5-.2-2.2-.2c-1-.1-2-.2-2.3-.2s-.7,0-1.4,0l1.5-8.5Z"/>
    <path class="st0" d="M1191.4,838.9h4.3c.5-2.3.6-2.9.7-4,1.7-.7,2.3-1.2,3.7-3.1h.4s-1.1,4.7-1.1,4.7c-.3,1.2-.4,1.5-.7,2.5,1.1,0,1.4,0,2.6,0h3l-2,1.3h-3.8s-1.5,7-1.5,7v.7c-.1,0-.3.7-.3.7v.7c0,0-.2.5-.2.5-.5,2.5-.6,3.2-.7,4.7,0,1.1.3,1.8.9,1.8s1.2-.2,2.3-1c.8-.5,1.3-.9,1.9-1.5l.6.5c-3.9,3.6-6,5.1-7.7,5.1s-1.9-.9-1.9-2.2,0-1,.1-1.4l2.8-13.2c.2-1.1.3-1.3.6-2.3-1,0-1.2,0-2.3,0h-3.5s1.6-1.3,1.6-1.3Z"/>
    <path class="st0" d="M1217.3,850.5c-4.3,4.9-5.4,6.1-7.4,7.7-.9.7-2,1.1-2.9,1.1-1.5,0-2.5-1.4-2.5-3.5s1.4-7.7,3.1-10.6c1.4-2.4,3.1-4.2,5.3-5.7,2-1.3,4-2.1,5.3-2.1s1,.1,2.6.6c.6.1.9.2,1.2.2.4,0,.8,0,1.3-.2.2,0,.2,0,.3,0,0,0,.2,0,.2.2,0,0,0,0,0,.1l-.3.9-.2.6-.6,2-1.6,5.8-.5,2.2-.3,1.3c-.4,1.6-.7,3-.7,4.2,0,.6.3.9.8.9,1,0,2-.7,4-2.6l.2.8c-3.1,3-5.8,4.9-7.4,4.9s-1.2-.7-1.2-2.1.3-2.4.9-4.3l.7-2.2h-.2ZM1211.4,842.9c-1.8,3.3-3.2,7.9-3.2,10.6s.6,2.4,1.5,2.4c.9,0,2-.8,3.9-2.6,2.5-2.2,3.4-3.6,4.2-5.9.9-2.4,1.7-5.6,1.7-6.5s-.9-1.9-2.6-1.9-4.3,1.5-5.6,3.9Z"/>
    <path class="st0" d="M1227.9,838.9h4.3c.5-2.3.6-2.9.7-4,1.7-.7,2.3-1.2,3.7-3.1h.4s-1.1,4.7-1.1,4.7c-.3,1.2-.4,1.5-.7,2.5,1.1,0,1.4,0,2.6,0h3l-2,1.3h-3.8s-1.5,7-1.5,7v.7c-.1,0-.3.7-.3.7v.7c0,0-.2.5-.2.5-.5,2.5-.6,3.2-.7,4.7,0,1.1.3,1.8.9,1.8s1.2-.2,2.3-1c.8-.5,1.3-.9,1.9-1.5l.6.5c-3.9,3.6-6,5.1-7.7,5.1s-1.9-.9-1.9-2.2,0-1,.1-1.4l2.8-13.2c.2-1.1.3-1.3.6-2.3-1,0-1.2,0-2.3,0h-3.5s1.6-1.3,1.6-1.3Z"/>
    <path class="st0" d="M1256,854.3c-3,3.1-6.3,4.9-9.2,4.9s-5.4-2.1-5.4-6.3,1.4-7.4,3.4-10.1c2.2-3,5.5-5,8.7-5.2,2.1-.1,3.5,1,3.5,2.9,0,4-4.2,7-11.7,8.5l-.2,1.8c-.1,1.9,0,3.4.7,4.6.6,1,1.4,1.4,2.8,1.4,2.1,0,4.5-1.1,7.2-3.5v1ZM1253.8,841.3c0-1.5-.7-2.2-2-2.2-2.8,0-5.5,3.8-6.4,9.1,5.5-1.1,8.4-3.5,8.4-6.9Z"/>
    <path class="st0" d="M1266.9,847.7c2.1-3.6,3.3-5.2,5.3-7,2.1-1.8,4.3-2.9,5.7-2.9s1.6.7,1.6,1.5,0,1-.3,2.5c-.4,1.8-.8,3.6-1.3,5.5h.2c2.1-3.7,3.7-5.6,6.3-7.4,1.9-1.3,3.5-1.9,4.7-2,1,0,1.7.7,1.7,1.8s-.1,1.4-.4,2.3l-1.7,6.8-1.1,4.5c-.3,1.3-.3,1.4-.3,1.8,0,.7.5,1.1,1.1,1.1s2.1-.7,3.6-1.9v.9c-1.3,1.1-2.4,1.8-3.8,2.7-1.7,1.1-2.4,1.4-3.2,1.4s-1.5-.6-1.5-1.5c0-.6,0-1.2.2-1.8l2.8-10.8c.2-.9.4-1.9.5-2.8,0-1.1-.2-1.7-.9-1.7-1.5,0-3.5,1.5-5.9,4.5-1.6,2-2.6,4.2-3.2,6.8l-1.5,6.6-3.4.7,1.5-6.7.8-3.5.3-1.4c.8-4,.9-4.7.8-5.8,0-.8-.4-1.3-.9-1.2-1.1,0-2.4,1.1-4.2,3.1-2.1,2.3-2.9,3.8-3.9,6.7-.7,1.9-.9,3.2-1.5,6.3,0,.7,0,.3-.2,1.3v.5c0,0-3.6.7-3.6.7,1.9-7.9,1.3-5.6,1.6-7,.7-3.3,1.1-5.2,1.5-7.6.3-2,.4-2.7.4-3.7s-.8-1.5-3.6-1.4v-.7c1.6,0,3.1-.3,4.9-.7l2.4-.6c.2,0,.3,0,.4,0s0,0,.2.2c0,0,0,.1,0,.2s0,.1,0,.3c-.1.4-.3.9-.4,1.4l-.4,2-.7,2.9c-.3,1.1-.5,1.7-.9,3.1h.2Z"/>
    <path class="st0" d="M1310.6,854.3c-3,3.1-6.3,4.9-9.2,4.9s-5.4-2.1-5.4-6.3,1.4-7.4,3.4-10.1c2.2-3,5.5-5,8.7-5.2,2.1-.1,3.5,1,3.5,2.9,0,4-4.2,7-11.7,8.5l-.2,1.8c-.1,1.9,0,3.4.7,4.6.6,1,1.4,1.4,2.8,1.4,2.1,0,4.5-1.1,7.2-3.5v1ZM1308.3,841.3c0-1.5-.7-2.2-2-2.2-2.8,0-5.5,3.8-6.4,9.1,5.5-1.1,8.4-3.5,8.4-6.9Z"/>
    <path class="st0" d="M1321.1,849.3c1.4-2.9,3.2-5.4,5.2-7.3,2.4-2.3,5.6-4.2,7.2-4.4,1,0,1.7.6,1.7,1.8s0,1.2-.2,1.8l-2.3,9.7-.2.7c-.7,3-.5,2.5-.5,2.3-.1.7-.2,1.1-.2,1.5,0,.6.3,1,.7,1,.9,0,2.6-1,4.1-2.5l.2.9c-3,2.7-6,4.5-7.2,4.5s-1.5-.7-1.5-1.8,0-1,.2-1.5l2.1-8.8c1.1-4.4.7-3.2.9-3.9.2-.7.2-1.1.2-1.5,0-.7-.2-1-.7-1.1-1.4-.2-4.4,2-6.5,4.8-2.1,2.8-3.4,5.6-4.1,9.5l-.2,1c-.5,2.6-.3,1.8-.5,2.5l-3.7.7c1.6-6.3,1.8-7,3-13.3.3-1.8.2-1.1.4-2,.4-2,.4-2.2.4-3.1,0-1.2-.8-1.5-3.6-1.4v-.7c1.6,0,3.1-.3,4.9-.7l2.4-.6c.2,0,.3,0,.4,0s0,0,.2.2,0,.1,0,.2,0,.1,0,.3c0,.2-.2.7-.4,1.4l-.5,2.1-.9,3.6c-.3,1.2-.6,2.1-1.2,3.9h.2Z"/>
    <path class="st0" d="M1341,838.9h4.3c.5-2.3.6-2.9.7-4,1.7-.7,2.3-1.2,3.7-3.1h.4s-1.1,4.7-1.1,4.7c-.3,1.2-.4,1.5-.7,2.5,1.1,0,1.4,0,2.6,0h3l-2,1.3h-3.8s-1.5,7-1.5,7v.7c-.1,0-.3.7-.3.7v.7c0,0-.2.5-.2.5-.5,2.5-.6,3.2-.7,4.7,0,1.1.3,1.8.9,1.8s1.2-.2,2.3-1c.8-.5,1.3-.9,1.9-1.5l.6.5c-3.9,3.6-6,5.1-7.7,5.1s-1.9-.9-1.9-2.2,0-1,.1-1.4l2.8-13.2c.2-1.1.3-1.3.6-2.3-1,0-1.2,0-2.3,0h-3.5s1.6-1.3,1.6-1.3Z"/>
    <path class="st0" d="M1383.3,843.5c0,5.4-2,9.8-5.7,13-2.2,1.9-4.7,2.8-7.1,2.8-3.8,0-5.3-1.9-5.3-6.6s1.2-6.7,3-9.4c2.2-3.3,6.3-5.7,9.6-5.7s5.5,2.2,5.5,5.9ZM1371.4,841.8c-1.2,2.1-2.1,5.1-2.4,8.5,0,.5,0,1,0,1.4,0,2,.5,3.7,1.2,4.7.6.7,1.5,1.2,2.5,1.2,2.3,0,4.3-1.5,5.4-4.3.8-1.9,1.5-6.3,1.5-8.7,0-3.7-1.4-5.7-3.9-5.7s-3.3,1.2-4.3,2.9Z"/>
    <path class="st0" d="M1391,856.1c-1.7,8.6-6.6,15.7-10.8,15.7s-2.5-.8-2.4-1.9c0-.8.5-1.6,1.4-2.3,1.3,1.5,2,2,2.9,2s2.1-.7,2.8-2.3c.7-1.3,1.4-3.7,1.8-5.8l3.8-19.1c.2-1.1.3-1.3.6-2.3-1,0-1.2,0-2.3,0h-3l1.5-1.3h3.9c1.2-3.8,2.4-6.1,5-9.2,2.1-2.5,3.5-3.4,5.3-3.4s1.7.6,1.7,1.5,0,.9-.4,2.1c-1.3-.3-1.7-.3-2.6-.3-1.7,0-3.2.6-3.8,1.4-.5.7-.7,1.4-1.2,3.9-.1.7.1-.6-.7,4.1.9-.1,1.2-.1,2.3-.1h3.6l-1.5,1.3h-4.6l-3.2,15.9Z"/>
    <path class="st0" d="M1436.9,835.6h-.5c0-.5,0-.8,0-1.1.2-3.1-3.6-6.1-7.7-6.1s-4.9,1-7,2.9c-3.7,3.3-5.5,8.3-5.5,14.8s.8,6.3,3.1,8.4c2,1.8,4.3,2.7,7.3,2.7s6.6-1.1,9.8-3.3l.2.8c-3,2.9-7.8,4.7-12.6,4.7-7.5,0-12.2-4.8-12.2-12.3s2.3-11.5,6.6-15.4c1.9-1.6,3.9-2.8,6.2-3.6,2.2-.8,3.8-1,6.7-1s4.9.8,6.6,2.2c.6.4.8.7,1.4,1.3l-2.5,4.9Z"/>
    <path class="st0" d="M1441.4,859.3l2-8.2c.7-3,1.3-5.7,1.8-8.2.1-.7.2-1.3.2-1.9,0-1.2-.8-1.5-3.6-1.4v-.7c1.6,0,3.1-.3,4.9-.7l2.4-.6c.2,0,.3,0,.4,0s0,0,.2.2,0,.1,0,.2,0-.2-.4,1.7l-.9,3.5c-.4,1.4-.6,2.1-1.3,3.7h.2c4.1-6.5,6.3-9.1,8.2-9.1s2.1.9,2.1,2.1-.6,2-2,2.6c-.8-.8-1.4-1.1-2.1-1.1s-1.5.5-2.5,1.5c-1.9,2-3.9,5.7-4.4,8.1l-1.8,7.8-3.5.7Z"/>
    <path class="st0" d="M1471.8,854.3c-3,3.1-6.3,4.9-9.2,4.9s-5.4-2.1-5.4-6.3,1.4-7.4,3.4-10.1c2.2-3,5.5-5,8.7-5.2,2.1-.1,3.5,1,3.5,2.9,0,4-4.2,7-11.7,8.5l-.2,1.8c-.1,1.9,0,3.4.7,4.6.6,1,1.4,1.4,2.8,1.4,2.1,0,4.5-1.1,7.2-3.5v1ZM1469.5,841.3c0-1.5-.7-2.2-2-2.2-2.8,0-5.5,3.8-6.4,9.1,5.5-1.1,8.4-3.5,8.4-6.9Z"/>
    <path class="st0" d="M1488.8,850.5c-4.3,4.9-5.4,6.1-7.4,7.7-.9.7-2,1.1-2.9,1.1-1.5,0-2.5-1.4-2.5-3.5s1.4-7.7,3.1-10.6c1.4-2.4,3.1-4.2,5.3-5.7,2-1.3,4-2.1,5.3-2.1s1,.1,2.6.6c.6.1.9.2,1.2.2.4,0,.8,0,1.3-.2.2,0,.2,0,.3,0,0,0,.2,0,.2.2,0,0,0,0,0,.1l-.3.9-.2.6-.6,2-1.6,5.8-.5,2.2-.3,1.3c-.4,1.6-.7,3-.7,4.2,0,.6.3.9.8.9,1,0,2-.7,4-2.6l.2.8c-3.1,3-5.8,4.9-7.4,4.9s-1.2-.7-1.2-2.1.3-2.4.9-4.3l.7-2.2h-.2ZM1482.9,842.9c-1.8,3.3-3.2,7.9-3.2,10.6s.6,2.4,1.5,2.4c.9,0,2-.8,3.9-2.6,2.5-2.2,3.4-3.6,4.2-5.9.9-2.4,1.7-5.6,1.7-6.5s-.9-1.9-2.6-1.9-4.3,1.5-5.6,3.9Z"/>
    <path class="st0" d="M1499.4,838.9h4.3c.5-2.3.6-2.9.7-4,1.7-.7,2.3-1.2,3.7-3.1h.4s-1.1,4.7-1.1,4.7c-.3,1.2-.4,1.5-.7,2.5,1.1,0,1.4,0,2.6,0h3l-2,1.3h-3.8s-1.5,7-1.5,7v.7c-.1,0-.3.7-.3.7v.7c0,0-.2.5-.2.5-.5,2.5-.6,3.2-.7,4.7,0,1.1.3,1.8.9,1.8s1.2-.2,2.3-1c.8-.5,1.3-.9,1.9-1.5l.6.5c-3.9,3.6-6,5.1-7.7,5.1s-1.9-.9-1.9-2.2,0-1,.1-1.4l2.8-13.2c.2-1.1.3-1.3.6-2.3-1,0-1.2,0-2.3,0h-3.5s1.6-1.3,1.6-1.3Z"/>
    <path class="st0" d="M1521.8,855.2c-1.1,1.2-2.6,2.1-4.8,3.5-.7.4-1.2.6-1.6.6-1,0-1.5-.8-1.5-2.1s0-1.2.2-2c0-.3,0,.5.6-2.5l.5-2,.5-2c.5-2.1.9-4.1,1.2-5.7.1-.7.2-1.3.2-1.9,0-1.2-.8-1.5-3.6-1.4v-.7c1.6,0,3.1-.3,4.9-.7l2.4-.6c.2,0,.3,0,.4,0s0,0,.2.2c0,0,0,.1,0,.2s0-.2-.4,1.8l-2.4,9.7c-.9,3.5-1.1,4.5-1.2,5.6,0,.7.3,1.2.8,1.2s2-.7,3.3-1.9l.2.9ZM1522.3,829.9c0,1.3-1,2.4-2.3,2.4s-2-.9-1.8-2.1c.2-1.1,1.1-2,2.2-2s1.9.7,1.9,1.7Z"/>
    <path class="st0" d="M1524.3,842.6c1.5-1.3,3.1-2.7,4.3-3.6,1.3-.9,2.1-1.3,2.8-1.3s.9.2,1.1.7c.2.4.3.8.3,1.3v.8s0,.8,0,.8v.8s.3,7.1.3,7.1c.1,3.3.1,4.1.1,7.2h.2c.9-1.3,1.1-1.6,2.2-3.1l2.2-2.9c2.6-3.3,3.5-5.5,3.5-7.7s-.2-1.6-.7-3.2c.8-1.2,1.6-1.7,2.7-1.6,1.1,0,1.8,1.1,1.8,2.5s-1.4,4.6-4.3,8.3l-4,4.8-.5.6c-.4.5-.9,1.1-.9,1.1l-1.2,1.5c-1.6,2.1-1.8,2.3-3.9,3.4,0-4.9,0-3.3,0-4.9,0-2.2,0-4.1-.2-6.1,0-.3,0-.6,0-.8-.4-5.8-.3-4.2-.3-4.8-.2-1.6-.7-2.3-1.5-2.3s-1.5.5-3.5,2l-.5-.5Z"/>
    <path class="st0" d="M1561,854.3c-3,3.1-6.3,4.9-9.2,4.9s-5.4-2.1-5.4-6.3,1.4-7.4,3.4-10.1c2.2-3,5.5-5,8.7-5.2,2.1-.1,3.5,1,3.5,2.9,0,4-4.2,7-11.7,8.5l-.2,1.8c-.1,1.9,0,3.4.7,4.6.6,1,1.4,1.4,2.8,1.4,2.1,0,4.5-1.1,7.2-3.5v1ZM1558.8,841.3c0-1.5-.7-2.2-2-2.2-2.8,0-5.5,3.8-6.4,9.1,5.5-1.1,8.4-3.5,8.4-6.9Z"/>
    <path class="st0" d="M1579.2,827.6c2.5,0,4.2,0,5.6,0h2.4s2.3,0,2.3,0h2.4c.6,0,3.3,0,7.1,0h1.9s1.9,0,1.9,0h1.9s-1.1,8.1-1.1,8.1h-.9c0-3,0-3.7-.3-4.6-.3-1.1-.7-1.6-1.6-1.8-.5-.1-.7-.1-2.8-.2-1.5,0-2.2,0-4,0l-1.4,7.8-.7,4.4c-.6,3.5-.9,5.3-1.4,8.7l-.7,5.1c0,.3,0,.7,0,.9,0,1.3,1.1,1.7,4.2,1.8l-.2,1.1h-.6c-.7,0-1.2,0-1.2,0-1.4,0-3,0-3.9,0-2.3,0-3.4,0-6.8,0l.2-1.1c.3,0,.6,0,.7,0,2.3-.3,3-.7,3.4-2,.2-.9.3-1,.9-4.7,1.1-5.6,1.5-8.3,2.3-13.4.7-3.9.8-5.4,1.3-8.8-.5.1-.6.1-1.1.1h-1.1c-4.8,0-5.8.3-7,1.9-.5.7-.9,1.8-1.8,4.8h-.8l1-8.1Z"/>
    <path class="st0" d="M1600.1,859.3l2-8.2c.7-3,1.3-5.7,1.8-8.2.1-.7.2-1.3.2-1.9,0-1.2-.8-1.5-3.6-1.4v-.7c1.6,0,3.1-.3,4.9-.7l2.4-.6c.2,0,.3,0,.4,0s0,0,.2.2,0,.1,0,.2,0-.2-.4,1.7l-.9,3.5c-.4,1.4-.6,2.1-1.3,3.7h.2c4.1-6.5,6.3-9.1,8.2-9.1s2.1.9,2.1,2.1-.6,2-2,2.6c-.8-.8-1.4-1.1-2.1-1.1s-1.5.5-2.5,1.5c-1.9,2-3.9,5.7-4.4,8.1l-1.8,7.8-3.5.7Z"/>
    <path class="st0" d="M1628.3,850.5c-4.3,4.9-5.4,6.1-7.4,7.7-.9.7-2,1.1-2.9,1.1-1.5,0-2.5-1.4-2.5-3.5s1.4-7.7,3.1-10.6c1.4-2.4,3.1-4.2,5.3-5.7,2-1.3,4-2.1,5.3-2.1s1,.1,2.6.6c.6.1.9.2,1.2.2.4,0,.8,0,1.3-.2.2,0,.2,0,.3,0,0,0,.2,0,.2.2,0,0,0,0,0,.1l-.3.9-.2.6-.6,2-1.6,5.8-.5,2.2-.3,1.3c-.4,1.6-.7,3-.7,4.2,0,.6.3.9.8.9,1,0,2-.7,4-2.6l.2.8c-3.1,3-5.8,4.9-7.4,4.9s-1.2-.7-1.2-2.1.3-2.4.9-4.3l.7-2.2h-.2ZM1622.3,842.9c-1.8,3.3-3.2,7.9-3.2,10.6s.6,2.4,1.5,2.4c.9,0,2-.8,3.9-2.6,2.5-2.2,3.4-3.6,4.2-5.9.9-2.4,1.7-5.6,1.7-6.5s-.9-1.9-2.6-1.9-4.3,1.5-5.6,3.9Z"/>
    <path class="st0" d="M1644.8,849.3c1.4-2.9,3.2-5.4,5.2-7.3,2.4-2.3,5.6-4.2,7.2-4.4,1,0,1.7.6,1.7,1.8s0,1.2-.2,1.8l-2.3,9.7-.2.7c-.7,3-.5,2.5-.5,2.3-.1.7-.2,1.1-.2,1.5,0,.6.3,1,.7,1,.9,0,2.6-1,4.1-2.5l.2.9c-3,2.7-6,4.5-7.2,4.5s-1.5-.7-1.5-1.8,0-1,.2-1.5l2.1-8.8c1.1-4.4.7-3.2.9-3.9.2-.7.2-1.1.2-1.5,0-.7-.2-1-.7-1.1-1.4-.2-4.4,2-6.5,4.8-2.1,2.8-3.4,5.6-4.1,9.5l-.2,1c-.5,2.6-.3,1.8-.5,2.5l-3.7.7c1.6-6.3,1.8-7,3-13.3.3-1.8.2-1.1.4-2,.4-2,.4-2.2.4-3.1,0-1.2-.8-1.5-3.6-1.4v-.7c1.6,0,3.1-.3,4.9-.7l2.4-.6c.2,0,.3,0,.4,0s0,0,.2.2,0,.1,0,.2,0,.1,0,.3c0,.2-.2.7-.4,1.4l-.5,2.1-.9,3.6c-.3,1.2-.6,2.1-1.2,3.9h.2Z"/>
    <path class="st0" d="M1662.7,857.4c.8-3.2.8-3.1,1.1-4.8,0,0,0-.4.1-.7h.8v.7c0,2.4.2,3.4,1.4,4.1.9.6,2.2.9,3.5.9,2.6,0,4.5-1.8,4.5-4.1s-.3-1.8-.9-2.3c-.5-.4-.8-.5-3.4-1.4-3-1-4.7-2.7-4.7-4.8s.8-2.8,2.2-4.3c1.8-2,3.9-3,6-3s2.7.3,4.6,1.1c0,.3-.1.5-.1.6l-1.1,4.3s0,.2,0,.5h-.8c.1-1,.1-1.2.1-1.6,0-1.8-1.7-3.1-4.1-3.1s-3.9,1.3-3.9,3.4.5,2.3,1.3,2.8c.4.3.3.2,3.5,1.4,1.5.5,2.4.9,3,1.5.8.7,1.4,1.9,1.4,2.9,0,3.9-5.1,8-9.8,8s-3.3-.4-4.9-1.4v-.5Z"/>
    <path class="st0" d="M1688.3,847c1.4-2.8,2.3-4.1,4.3-5.9,2.2-2.1,4.4-3.3,6.2-3.3s3.4,1.5,3.4,4.5c0,4.9-2.2,10.1-5.5,13-1.1,1-2.9,2.2-4.4,3-1.7.8-2.6,1.1-3.8,1.1s-1.4-.2-2.6-.8l-.4,2-1,4.3c-.5,2-.6,2.8-.6,3.3,0,.6.2.9.8,2.1l-4.6,1.2c0-.3,0-.6,0-.7,0-.6,0-1.2.3-2.3l.7-2.6c1.4-5.1,2.4-9.5,3.1-13.1.5-2.4,1.1-5.6,1.8-9.8.1-.7.2-1.4.2-1.9,0-1.2-.8-1.5-3.6-1.4v-.7c1.6,0,3.1-.3,4.9-.7l2.4-.6c.2,0,.3,0,.4,0s0,0,.2.2c0,0,0,.1,0,.2s0,.1,0,.3c-.1.4-.3.8-.4,1.4v.6c-.1,0-.3.6-.3.6v.6c0,0-.7,2.6-.7,2.6-.2.8-.4,1.5-.9,2.9h.2ZM1690.3,845c-1,1.4-1.6,2.7-2.4,5.2,0,.3,0-.7-.8,3.3-.2,1-.4,1.8-.4,2.1,0,1.1,1.3,1.8,3.7,1.8s3.4-.9,4.7-2.7c2-2.6,3.2-6.6,3.4-10.9,0-2.1-.6-3.2-2.1-3.2s-4.1,1.8-6.1,4.5Z"/>
    <path class="st0" d="M1718.1,850.5c-4.3,4.9-5.4,6.1-7.4,7.7-.9.7-2,1.1-2.9,1.1-1.5,0-2.5-1.4-2.5-3.5s1.4-7.7,3.1-10.6c1.4-2.4,3.1-4.2,5.3-5.7,2-1.3,4-2.1,5.3-2.1s1,.1,2.6.6c.6.1.9.2,1.2.2.4,0,.8,0,1.3-.2.2,0,.2,0,.3,0,0,0,.2,0,.2.2,0,0,0,0,0,.1l-.3.9-.2.6-.6,2-1.6,5.8-.5,2.2-.3,1.3c-.4,1.6-.7,3-.7,4.2,0,.6.3.9.8.9,1,0,2-.7,4-2.6l.2.8c-3.1,3-5.8,4.9-7.4,4.9s-1.2-.7-1.2-2.1.3-2.4.9-4.3l.7-2.2h-.2ZM1712.1,842.9c-1.8,3.3-3.2,7.9-3.2,10.6s.6,2.4,1.5,2.4c.9,0,2-.8,3.9-2.6,2.5-2.2,3.4-3.6,4.2-5.9.9-2.4,1.7-5.6,1.7-6.5s-.9-1.9-2.6-1.9-4.3,1.5-5.6,3.9Z"/>
    <path class="st0" d="M1729.4,859.3l2-8.2c.7-3,1.3-5.7,1.8-8.2.1-.7.2-1.3.2-1.9,0-1.2-.8-1.5-3.6-1.4v-.7c1.6,0,3.1-.3,4.9-.7l2.4-.6c.2,0,.3,0,.4,0s0,0,.2.2c0,0,0,.1,0,.2s0-.2-.4,1.7l-.9,3.5c-.4,1.4-.6,2.1-1.3,3.7h.2c4.1-6.5,6.3-9.1,8.2-9.1s2.1.9,2.1,2.1-.6,2-2,2.6c-.8-.8-1.4-1.1-2.1-1.1s-1.5.5-2.5,1.5c-1.9,2-3.9,5.7-4.4,8.1l-1.8,7.8-3.5.7Z"/>
    <path class="st0" d="M1759.7,854.3c-3,3.1-6.3,4.9-9.2,4.9s-5.4-2.1-5.4-6.3,1.4-7.4,3.4-10.1c2.2-3,5.5-5,8.7-5.2,2.1-.1,3.5,1,3.5,2.9,0,4-4.2,7-11.7,8.5l-.2,1.8c-.1,1.9,0,3.4.7,4.6.6,1,1.4,1.4,2.8,1.4,2.1,0,4.5-1.1,7.2-3.5v1ZM1757.5,841.3c0-1.5-.7-2.2-2-2.2-2.8,0-5.5,3.8-6.4,9.1,5.5-1.1,8.4-3.5,8.4-6.9Z"/>
    <path class="st0" d="M1770.3,849.3c1.4-2.9,3.2-5.4,5.2-7.3,2.4-2.3,5.6-4.2,7.2-4.4,1,0,1.7.6,1.7,1.8s0,1.2-.2,1.8l-2.3,9.7-.2.7c-.7,3-.5,2.5-.5,2.3-.1.7-.2,1.1-.2,1.5,0,.6.3,1,.7,1,.9,0,2.6-1,4.1-2.5l.2.9c-3,2.7-6,4.5-7.2,4.5s-1.5-.7-1.5-1.8,0-1,.2-1.5l2.1-8.8c1.1-4.4.7-3.2.9-3.9.2-.7.2-1.1.2-1.5,0-.7-.2-1-.7-1.1-1.4-.2-4.4,2-6.5,4.8-2.1,2.8-3.4,5.6-4.1,9.5l-.2,1c-.5,2.6-.3,1.8-.5,2.5l-3.7.7c1.6-6.3,1.8-7,3-13.3.3-1.8.2-1.1.4-2,.4-2,.4-2.2.4-3.1,0-1.2-.8-1.5-3.6-1.4v-.7c1.6,0,3.1-.3,4.9-.7l2.4-.6c.2,0,.3,0,.4,0s0,0,.2.2,0,.1,0,.2,0,.1,0,.3c0,.2-.2.7-.4,1.4l-.5,2.1-.9,3.6c-.3,1.2-.6,2.1-1.2,3.9h.2Z"/>
    <path class="st0" d="M1804.5,854.6c-1,1-1.8,1.7-3,2.5-2.5,1.8-4.2,2.4-6.3,2.4-3.5,0-5.7-2.3-5.7-5.9s1.3-7,3.2-10c2.2-3.5,6-6,9.2-6s4.6,1.3,4.8,2.8c.2,1.4-1,2.4-2.8,2.6-.6-1.3-.8-1.8-1.1-2.1-.7-.8-1.8-1.4-2.8-1.4-2.2,0-3.8,1.5-5.2,5-1.1,2.8-1.5,4.9-1.5,7.7s.7,3.5,1.5,4.2c.7.6,1.5.8,2.6.8,2.1,0,3.5-.7,7.1-3.5l.2.9Z"/>
    <path class="st0" d="M1811,862.8c-2.6,3.3-1.8,2.3-2.3,2.9-1.8,2.1-2.7,3-4.8,4.7-1.6-.4-2.1-.6-3.1-1.2,5-3,9.1-6.6,12.2-10.5,0-4.7-.2-7.8-.9-14.8,0-.3,0-.6,0-.7-.1-1.7-.5-2.4-1.1-2.4s-1.8.7-3.2,2l-.6-.6c.9-.8,2.6-2.2,3.8-3.1,1.3-1,2.1-1.3,2.8-1.4s1.2.5,1.3,1.6c0,.3.1,1.3.2,2.3l.2,4,.2,4,.2,4c0,0,0,.7.2,1.6.8-1.2,1.1-1.4,2.1-2.7l2.1-2.6c1.4-1.7,2.6-3.5,3.1-4.6.5-.9.6-1.5.6-2.3s-.3-1.9-1.2-3.5c.9-1.3,1.6-1.6,2.6-1.6,1.1,0,1.8,1,1.8,2.4s-.6,3-1.9,4.7l-14.2,17.9Z"/>
  </g>
  <g>
    <path class="st0" d="M89.6,452.7h49.9c48.1,0,81.4,33.2,81.4,76.3v.4c0,43.1-33.2,76.3-81.4,76.3h-49.9v-153.1ZM139.7,599c44,0,73.5-30.6,73.5-69.3v-.4c0-38.7-29.5-69.8-73.7-69.8h-42.4v139.5h42.6Z"/>
    <path class="st0" d="M279.4,452.7h7.4v153.1h-7.4v-153.1Z"/>
    <path class="st0" d="M342.3,583.5l5-5.5c16.2,15.3,34.1,23.2,56.4,23.2s43.8-14.4,43.8-33.7v-.4c0-17.9-10.3-27.5-47.2-35.2-37.4-7.4-52.1-19.2-52.1-41.3v-.4c0-21.9,20.8-39.6,49.6-39.6s37.6,6.6,52.1,17.9l-4.6,5.9c-14-11.2-30-17.1-47.9-17.1s-41.8,15.1-41.8,32.2v.4c0,17.7,10.3,27.6,47.5,35.2,38,7.7,51.8,19.9,51.8,41.3v.4c0,23.6-20.3,41.1-51.6,41.1s-43.7-8.5-61-24.5Z"/>
    <path class="st0" d="M503.8,529.7v-.4c0-43.1,31.9-79.2,75.7-79.2s44,10.5,58.8,24.3l-5.3,5.5c-12.7-12.2-28.2-23-53.8-23-38.9,0-67.8,32.6-67.8,72.2v.4c0,39.6,29.3,72.2,68,72.2s40.9-10.5,54.5-24.5l5.3,5c-14.4,14.7-33,26.2-60.1,26.2-43.3,0-75.2-35.2-75.2-78.7Z"/>
    <path class="st0" d="M688.8,452.7h7.4v146.3h92.3v6.8h-99.7v-153.1Z"/>
  </g>
  <path class="st1" d="M905.9,451.6h7l72.6,154.2h-8.1l-20.8-44.6h-94.7l-21,44.6h-7.7l72.6-154.2ZM953.4,554.4l-44.2-94-44,94h88.1Z"/>
  <path class="st1" d="M1037.7,452.7h7.4v153.1h-7.4v-153.1Z"/>
  <path class="st0" d="M1165.9,452.7h7l64.7,93.2,64.5-93.2h7v153.1h-7.4v-140.2l-64.1,91.9h-.4l-64.1-91.9v140.2h-7.2v-153.1Z"/>
  <path class="st0" d="M1377.6,452.7h107.8v6.8h-100.4v65.8h90.8v6.8h-90.8v66.9h101.5v6.8h-108.9v-153.1Z"/>
  <path class="st0" d="M1546,452.7h63.2c19.5,0,34.3,5.5,43.8,14.7,7,7.2,11.1,17.1,11.1,28.4v.4c0,25.8-19.9,40.9-48.1,43.3l51,66.3h-9.4l-49.9-65.4h-54.2v65.4h-7.4v-153.1ZM1607.2,533.6c31.5,0,49.4-15.3,49.4-37v-.4c0-23-17.7-36.7-47.9-36.7h-55.3v74.1h53.8Z"/>
  <path class="st0" d="M960,371.1c-89.6,0-162.5,72.9-162.5,162.5s72.9,162.5,162.5,162.5,162.5-72.9,162.5-162.5-72.9-162.5-162.5-162.5ZM806.6,533.6c0-84.6,68.8-153.4,153.4-153.4s85.1,19.3,113.2,50l-216.6,216.6c-30.7-28.1-50-68.4-50-113.2ZM960,687c-36.5,0-70.1-12.8-96.4-34.2l215.6-215.6c21.4,26.4,34.2,59.9,34.2,96.4,0,84.6-68.8,153.4-153.4,153.4Z"/>
</svg>