<?xml version="1.0" encoding="UTF-8"?>
<svg id="Layer_1" xmlns="http://www.w3.org/2000/svg" version="1.1" viewBox="0 0 1920 1080">
  <!-- Generator: Adobe Illustrator 29.0.1, SVG Export Plug-In . SVG Version: 2.1.0 Build 192)  -->
  <defs>
    <style>
      .st0 {
        fill: #fff;
      }

      .st1 {
        fill: #ec1c24;
      }
    </style>
  </defs>
  <g>
    <path class="st0" d="M1168.2,854h.9v.7c0,4.7,2.2,7.1,6.5,7.1s7.5-2.9,7.5-6.8-.6-3.1-1.6-4.4c-.7-.8-1.6-1.6-2.6-2.1l-1.5-.8-1.5-.8-1.5-.8c-2.8-1.5-4.3-3.8-4.3-6.6,0-5.1,4.5-9.2,10.3-9.2s4.8.5,6.8,1.3c-.8,2.7-1.1,3.7-1.8,6.5h-.9c0-1.3,0-1.5,0-2.1,0-2.7-2-4.5-5-4.5s-6.2,2.4-6.2,6.1.6,2.8,1.9,4c.5.4,1.1.8,1.6,1.1l1.7.9,1.7.9,1.7.9c3.1,1.6,4.8,4.3,4.8,7.4s-2.3,7-5.4,8.8c-2,1.1-3.9,1.5-7.1,1.5h-.2l-1.5-.2-2.2-.2c-1,0-2-.2-2.3-.2h-1.5l1.5-8.5h0Z"/>
    <path class="st0" d="M1191.3,842.1h4.3c.5-2.3.6-3,.7-4,1.7-.7,2.3-1.2,3.7-3.1h.4l-1.1,4.7c-.3,1.2-.4,1.5-.7,2.5h5.6l-2,1.3h-3.8l-1.5,7v.7c0,0-.3.7-.3.7v.7l-.2.5c-.5,2.5-.6,3.2-.7,4.7,0,1.1.3,1.8.9,1.8s1.2-.2,2.3-1c.8-.5,1.3-.9,1.9-1.5l.6.5c-3.9,3.7-6,5.1-7.7,5.1s-1.9-.9-1.9-2.2,0-1,0-1.5l2.8-13.3c.2-1.1.3-1.3.6-2.3h-5.8l1.6-1.4h.2Z"/>
    <path class="st0" d="M1217.3,853.8c-4.3,5-5.4,6.1-7.4,7.7-.9.8-2,1.1-2.9,1.1-1.5,0-2.5-1.4-2.5-3.5s1.4-7.7,3.1-10.7c1.4-2.4,3.1-4.3,5.3-5.7,2-1.3,4-2.1,5.3-2.1s1,0,2.6.6c.6,0,.9.2,1.2.2s.8,0,1.3-.2h.3s.2,0,.2.2h0c0,0-.3,1-.3,1l-.2.6-.6,2-1.6,5.8-.5,2.2-.3,1.3c-.4,1.6-.7,3-.8,4.3,0,.6.3.9.8.9,1,0,2-.7,4-2.6l.2.8c-3.1,3-5.9,4.9-7.4,4.9s-1.2-.7-1.2-2.1.3-2.4.9-4.4l.7-2.2h-.2ZM1211.4,846.1c-1.8,3.3-3.2,8-3.2,10.6s.6,2.4,1.5,2.4,2-.8,3.9-2.6c2.5-2.2,3.4-3.6,4.3-5.9.9-2.4,1.7-5.6,1.7-6.5s-.9-1.9-2.6-1.9-4.3,1.5-5.7,3.9h0Z"/>
    <path class="st0" d="M1227.9,842.1h4.3c.5-2.3.6-3,.7-4,1.7-.7,2.3-1.2,3.7-3.1h.4l-1.1,4.7c-.3,1.2-.4,1.5-.7,2.5h5.6l-2,1.3h-3.8l-1.5,7v.7c0,0-.3.7-.3.7v.7l-.2.5c-.5,2.5-.6,3.2-.7,4.7,0,1.1.3,1.8.9,1.8s1.2-.2,2.3-1c.8-.5,1.3-.9,1.9-1.5l.6.5c-3.9,3.7-6,5.1-7.7,5.1s-1.9-.9-1.9-2.2,0-1,0-1.5l2.8-13.3c.2-1.1.3-1.3.6-2.3h-5.8l1.6-1.4h.2Z"/>
    <path class="st0" d="M1256.1,857.6c-3,3.1-6.4,4.9-9.2,4.9s-5.4-2.2-5.4-6.3,1.4-7.4,3.4-10.1c2.2-3,5.5-5.1,8.8-5.2,2.1,0,3.5,1,3.5,3,0,4-4.3,7-11.7,8.5l-.2,1.8c0,1.9,0,3.4.8,4.6.6,1,1.4,1.4,2.8,1.4,2.2,0,4.5-1.1,7.2-3.5v1h0ZM1253.9,844.5c0-1.5-.7-2.3-2-2.3-2.9,0-5.5,3.8-6.5,9.2,5.5-1.1,8.4-3.5,8.4-6.9h0Z"/>
    <path class="st0" d="M1267,851c2.1-3.7,3.3-5.2,5.3-7,2.1-1.8,4.4-3,5.8-3s1.6.7,1.6,1.5,0,1-.3,2.5c-.4,1.8-.8,3.6-1.3,5.5h.2c2.2-3.7,3.7-5.6,6.3-7.4,1.9-1.3,3.5-1.9,4.7-2,1,0,1.7.7,1.7,1.8s0,1.5-.4,2.3l-1.7,6.8-1.1,4.5c-.3,1.3-.3,1.5-.3,1.8,0,.7.5,1.1,1.1,1.1s2.1-.7,3.6-1.9v.9c-1.4,1.1-2.4,1.8-3.8,2.7-1.7,1.1-2.4,1.5-3.2,1.5s-1.5-.6-1.5-1.5,0-1.2.2-1.8l2.8-10.9c.2-.9.4-1.9.5-2.8,0-1.1-.2-1.7-.9-1.7-1.5,0-3.6,1.5-5.9,4.5-1.6,2-2.6,4.2-3.2,6.8l-1.5,6.6-3.4.7,1.5-6.7.8-3.6.3-1.4c.8-4,.9-4.7.8-5.8,0-.8-.4-1.3-.9-1.2-1.1,0-2.4,1.1-4.3,3.1-2.1,2.3-3,3.8-3.9,6.7-.7,1.9-.9,3.2-1.5,6.3,0,.7,0,.3-.2,1.3v.5l-3.7.7c1.9-8,1.3-5.7,1.6-7,.8-3.3,1.1-5.2,1.5-7.6.3-2,.4-2.7.4-3.7s-.8-1.5-3.6-1.4v-.7c1.6,0,3.1-.3,4.9-.7l2.4-.6h.4c0,0,0,0,.2.2v.5c0,.4-.3.9-.4,1.5l-.4,2-.7,2.9c-.3,1.1-.5,1.7-.9,3.1h.4Z"/>
    <path class="st0" d="M1310.9,857.6c-3,3.1-6.4,4.9-9.2,4.9s-5.4-2.2-5.4-6.3,1.4-7.4,3.4-10.1c2.2-3,5.5-5.1,8.8-5.2,2.1,0,3.5,1,3.5,3,0,4-4.3,7-11.7,8.5l-.2,1.8c0,1.9,0,3.4.8,4.6.6,1,1.4,1.4,2.8,1.4,2.2,0,4.5-1.1,7.2-3.5v1h0ZM1308.6,844.5c0-1.5-.7-2.3-2-2.3-2.9,0-5.5,3.8-6.5,9.2,5.5-1.1,8.4-3.5,8.4-6.9h0Z"/>
    <path class="st0" d="M1321.4,852.6c1.5-3,3.2-5.4,5.2-7.4,2.4-2.3,5.6-4.3,7.3-4.4,1,0,1.7.6,1.7,1.8s0,1.2-.2,1.8l-2.3,9.7-.2.7c-.7,3-.5,2.5-.5,2.3,0,.8-.2,1.1-.2,1.5,0,.6.3,1,.8,1,.9,0,2.6-1,4.1-2.5l.2.9c-3,2.7-6,4.5-7.3,4.5s-1.5-.7-1.5-1.8,0-1,.2-1.5l2.2-8.8c1.1-4.4.8-3.2.9-3.9.2-.7.2-1.1.2-1.5,0-.7-.2-1-.7-1.1-1.4-.2-4.4,2-6.6,4.8s-3.4,5.7-4.1,9.5l-.2,1c-.5,2.6-.3,1.8-.5,2.5l-3.7.7c1.6-6.3,1.8-7.1,3-13.3.3-1.8.2-1.1.4-2,.4-2,.4-2.2.4-3.1s-.8-1.5-3.7-1.4v-.7c1.6,0,3.1-.3,4.9-.7l2.4-.6h.4c0,0,0,0,.2.2s0,0,0,.2v.3c0,.2-.2.8-.4,1.5l-.5,2.1-.9,3.6c-.3,1.2-.6,2.1-1.2,3.9h.2v.2Z"/>
    <path class="st0" d="M1341.4,842.1h4.3c.5-2.3.6-3,.7-4,1.7-.7,2.3-1.2,3.7-3.1h.4l-1.1,4.7c-.3,1.2-.4,1.5-.7,2.5h5.6l-2,1.3h-3.8l-1.5,7v.7c0,0-.3.7-.3.7v.7l-.2.5c-.5,2.5-.6,3.2-.7,4.7,0,1.1.3,1.8.9,1.8s1.2-.2,2.3-1c.8-.5,1.3-.9,1.9-1.5l.6.5c-3.9,3.7-6,5.1-7.7,5.1s-1.9-.9-1.9-2.2,0-1,0-1.5l2.8-13.3c.2-1.1.3-1.3.6-2.3h-5.8l1.6-1.4h.2Z"/>
    <path class="st0" d="M1383.9,846.7c0,5.4-2,9.9-5.7,13-2.2,1.9-4.7,2.9-7.2,2.9-3.8,0-5.3-1.9-5.3-6.6s1.2-6.7,3-9.5c2.2-3.3,6.3-5.8,9.6-5.8s5.5,2.2,5.5,5.9h0ZM1371.9,845.1c-1.2,2.1-2.1,5.1-2.4,8.5v1.5c0,2,.5,3.7,1.2,4.7.6.7,1.5,1.2,2.5,1.2,2.3,0,4.3-1.5,5.4-4.3.8-1.9,1.5-6.3,1.5-8.7,0-3.7-1.4-5.7-3.9-5.7s-3.3,1.2-4.3,2.9h0Z"/>
    <path class="st0" d="M1391.6,859.4c-1.7,8.7-6.6,15.7-10.8,15.7s-2.5-.8-2.4-1.9c0-.8.5-1.6,1.4-2.3,1.3,1.5,2,2,2.9,2s2.1-.8,2.8-2.3c.7-1.4,1.4-3.7,1.8-5.8l3.8-19.2c.2-1.1.3-1.3.6-2.3h-5.3l1.5-1.4h3.9c1.2-3.8,2.4-6.1,5.1-9.2,2.1-2.5,3.5-3.4,5.3-3.4s1.7.6,1.7,1.5,0,.9-.4,2.1c-1.3-.3-1.7-.3-2.6-.3-1.7,0-3.2.6-3.8,1.5-.5.7-.7,1.4-1.2,3.9,0,.7,0-.6-.8,4.1.9,0,1.2,0,2.3,0h3.7l-1.5,1.4h-4.6l-3.2,15.9h-.2Z"/>
    <path class="st0" d="M1437.6,838.8h-.5v-1.1c.2-3.1-3.7-6.1-7.8-6.1s-4.9,1-7,2.9c-3.7,3.3-5.5,8.3-5.5,14.8s.8,6.3,3.1,8.5c2,1.8,4.3,2.7,7.4,2.7s6.7-1.1,9.8-3.3l.2.8c-3,2.9-7.9,4.7-12.6,4.7-7.5,0-12.2-4.8-12.2-12.3s2.3-11.6,6.6-15.4c1.9-1.6,3.9-2.9,6.2-3.7,2.3-.8,3.8-1,6.7-1s4.9.8,6.6,2.2c.6.4.8.7,1.4,1.4l-2.5,4.9h.1Z"/>
    <path class="st0" d="M1442.1,862.6l2-8.2c.8-3,1.3-5.7,1.8-8.2,0-.7.2-1.3.2-1.9,0-1.2-.8-1.5-3.6-1.4v-.7c1.6,0,3.1-.3,4.9-.7l2.4-.6h.4c0,0,0,0,.2.2s0,0,0,.2,0-.2-.4,1.7l-.9,3.5c-.4,1.4-.6,2.1-1.3,3.7h.2c4.1-6.6,6.4-9.2,8.2-9.2s2.1.9,2.1,2.1-.6,2-2,2.6c-.8-.8-1.4-1.1-2.1-1.1s-1.5.5-2.5,1.5c-1.9,2-3.9,5.8-4.4,8.1l-1.8,7.8-3.6.7h.2Z"/>
    <path class="st0" d="M1472.6,857.6c-3,3.1-6.4,4.9-9.2,4.9s-5.4-2.2-5.4-6.3,1.4-7.4,3.4-10.1c2.2-3,5.5-5.1,8.8-5.2,2.1,0,3.5,1,3.5,3,0,4-4.3,7-11.7,8.5l-.2,1.8c0,1.9,0,3.4.8,4.6.6,1,1.4,1.4,2.8,1.4,2.2,0,4.5-1.1,7.2-3.5v1h0ZM1470.4,844.5c0-1.5-.7-2.3-2-2.3-2.9,0-5.5,3.8-6.5,9.2,5.5-1.1,8.4-3.5,8.4-6.9h0Z"/>
    <path class="st0" d="M1489.7,853.8c-4.3,5-5.4,6.1-7.4,7.7-.9.8-2,1.1-2.9,1.1-1.5,0-2.5-1.4-2.5-3.5s1.4-7.7,3.1-10.7c1.4-2.4,3.1-4.3,5.3-5.7,2-1.3,4-2.1,5.3-2.1s1,0,2.6.6c.6,0,.9.2,1.2.2s.8,0,1.3-.2h.3s.2,0,.2.2h0c0,0-.3,1-.3,1l-.2.6-.6,2-1.6,5.8-.5,2.2-.3,1.3c-.4,1.6-.7,3-.8,4.3,0,.6.3.9.8.9,1,0,2-.7,4-2.6l.2.8c-3.1,3-5.9,4.9-7.4,4.9s-1.2-.7-1.2-2.1.3-2.4.9-4.4l.7-2.2h-.2ZM1483.8,846.1c-1.8,3.3-3.2,8-3.2,10.6s.6,2.4,1.5,2.4,2-.8,3.9-2.6c2.5-2.2,3.4-3.6,4.3-5.9.9-2.4,1.7-5.6,1.7-6.5s-.9-1.9-2.6-1.9-4.3,1.5-5.7,3.9h0Z"/>
    <path class="st0" d="M1500.3,842.1h4.3c.5-2.3.6-3,.7-4,1.7-.7,2.3-1.2,3.7-3.1h.4l-1.1,4.7c-.3,1.2-.4,1.5-.7,2.5h5.6l-2,1.3h-3.8l-1.5,7v.7c0,0-.3.7-.3.7v.7l-.2.5c-.5,2.5-.6,3.2-.7,4.7,0,1.1.3,1.8.9,1.8s1.2-.2,2.3-1c.8-.5,1.3-.9,1.9-1.5l.6.5c-3.9,3.7-6,5.1-7.7,5.1s-1.9-.9-1.9-2.2,0-1,0-1.5l2.8-13.3c.2-1.1.3-1.3.6-2.3h-5.8l1.6-1.4h.2Z"/>
    <path class="st0" d="M1522.8,858.5c-1.1,1.2-2.6,2.2-4.8,3.5-.7.4-1.2.6-1.6.6-1,0-1.5-.8-1.5-2.1s0-1.2.2-2c0-.3,0,.5.6-2.5l.5-2,.5-2c.5-2.2.9-4.1,1.2-5.8,0-.7.2-1.3.2-1.9,0-1.2-.8-1.5-3.6-1.4v-.7c1.6,0,3.1-.3,4.9-.7l2.4-.6h.4c0,0,0,0,.2.2v.2c0,.1,0-.2-.4,1.8l-2.4,9.7c-.9,3.5-1.1,4.5-1.2,5.6,0,.7.3,1.2.8,1.2s2-.7,3.3-1.9l.2.9h.1ZM1523.4,833.1c0,1.3-1,2.4-2.3,2.4s-2-.9-1.8-2.2c.2-1.1,1.1-2,2.2-2s1.9.8,1.9,1.7h0Z"/>
    <path class="st0" d="M1525.3,845.9c1.5-1.4,3.1-2.8,4.3-3.7,1.3-.9,2.1-1.3,2.9-1.3s.9.2,1.1.7c.2.4.3.8.3,1.3v2.4l.3,7.1c0,3.3,0,4.1,0,7.2h.2c.9-1.3,1.1-1.6,2.2-3.1l2.3-2.9c2.6-3.3,3.6-5.5,3.6-7.7s-.2-1.6-.7-3.2c.8-1.2,1.6-1.7,2.7-1.6,1.1,0,1.8,1.1,1.8,2.5s-1.4,4.6-4.3,8.3l-4,4.8-.5.6c-.4.5-.9,1.1-.9,1.1l-1.2,1.5c-1.6,2.2-1.8,2.3-3.9,3.4v-5c0-2.2,0-4.1-.2-6.1v-.8c-.4-5.9-.3-4.3-.3-4.8-.2-1.6-.7-2.3-1.5-2.3s-1.5.5-3.5,2l-.5-.5h-.3Z"/>
    <path class="st0" d="M1562.1,857.6c-3,3.1-6.4,4.9-9.2,4.9s-5.4-2.2-5.4-6.3,1.4-7.4,3.4-10.1c2.2-3,5.5-5.1,8.8-5.2,2.1,0,3.5,1,3.5,3,0,4-4.3,7-11.7,8.5l-.2,1.8c0,1.9,0,3.4.8,4.6.6,1,1.4,1.4,2.8,1.4,2.2,0,4.5-1.1,7.2-3.5v1h0ZM1559.9,844.5c0-1.5-.7-2.3-2-2.3-2.9,0-5.5,3.8-6.5,9.2,5.5-1.1,8.4-3.5,8.4-6.9h0Z"/>
    <path class="st0" d="M1580.4,830.8h25.5l-1.1,8.1h-.9c0-3,0-3.7-.3-4.6-.3-1.1-.8-1.6-1.6-1.8-.5,0-.8,0-2.9-.2h-4l-1.4,7.9-.8,4.4c-.6,3.5-.9,5.3-1.4,8.8l-.7,5.2v.9c0,1.3,1.1,1.7,4.2,1.8l-.2,1.1h-12.5l.2-1.1h.8c2.3-.3,3-.7,3.4-2,.2-.9.3-1,.9-4.7,1.1-5.6,1.5-8.3,2.3-13.4.7-3.9.8-5.4,1.3-8.8-.5,0-.6,0-1.1,0h-1.1c-4.8,0-5.9.3-7,1.9-.5.7-.9,1.8-1.8,4.8h-.8l1-8.1v-.3Z"/>
    <path class="st0" d="M1601.4,862.6l2-8.2c.8-3,1.3-5.7,1.8-8.2,0-.7.2-1.3.2-1.9,0-1.2-.8-1.5-3.6-1.4v-.7c1.6,0,3.1-.3,4.9-.7l2.4-.6h.4c0,0,0,0,.2.2s0,0,0,.2,0-.2-.4,1.7l-.9,3.5c-.4,1.4-.6,2.1-1.3,3.7h.2c4.1-6.6,6.4-9.2,8.2-9.2s2.1.9,2.1,2.1-.6,2-2,2.6c-.8-.8-1.4-1.1-2.1-1.1s-1.5.5-2.5,1.5c-1.9,2-3.9,5.8-4.4,8.1l-1.8,7.8-3.6.7h.2Z"/>
    <path class="st0" d="M1629.6,853.8c-4.3,5-5.4,6.1-7.4,7.7-.9.8-2,1.1-2.9,1.1-1.5,0-2.5-1.4-2.5-3.5s1.4-7.7,3.1-10.7c1.4-2.4,3.1-4.3,5.3-5.7,2-1.3,4-2.1,5.3-2.1s1,0,2.6.6c.6,0,.9.2,1.2.2s.8,0,1.3-.2h.3s.2,0,.2.2h0c0,0-.3,1-.3,1l-.2.6-.6,2-1.6,5.8-.5,2.2-.3,1.3c-.4,1.6-.7,3-.8,4.3,0,.6.3.9.8.9,1,0,2-.7,4-2.6l.2.8c-3.1,3-5.9,4.9-7.4,4.9s-1.2-.7-1.2-2.1.3-2.4.9-4.4l.7-2.2h-.2ZM1623.7,846.1c-1.8,3.3-3.2,8-3.2,10.6s.6,2.4,1.5,2.4,2-.8,3.9-2.6c2.5-2.2,3.4-3.6,4.3-5.9.9-2.4,1.7-5.6,1.7-6.5s-.9-1.9-2.6-1.9-4.3,1.5-5.7,3.9h0Z"/>
    <path class="st0" d="M1646.3,852.6c1.5-3,3.2-5.4,5.2-7.4,2.4-2.3,5.6-4.3,7.3-4.4,1,0,1.7.6,1.7,1.8s0,1.2-.2,1.8l-2.3,9.7-.2.7c-.7,3-.5,2.5-.5,2.3,0,.8-.2,1.1-.2,1.5,0,.6.3,1,.8,1,.9,0,2.6-1,4.1-2.5l.2.9c-3,2.7-6,4.5-7.3,4.5s-1.5-.7-1.5-1.8,0-1,.2-1.5l2.2-8.8c1.1-4.4.8-3.2.9-3.9.2-.7.2-1.1.2-1.5,0-.7-.2-1-.7-1.1-1.4-.2-4.4,2-6.6,4.8s-3.4,5.7-4.1,9.5l-.2,1c-.5,2.6-.3,1.8-.5,2.5l-3.7.7c1.6-6.3,1.8-7.1,3-13.3.3-1.8.2-1.1.4-2,.4-2,.4-2.2.4-3.1s-.8-1.5-3.7-1.4v-.7c1.6,0,3.1-.3,4.9-.7l2.4-.6h.4c0,0,0,0,.2.2s0,0,0,.2v.3c0,.2-.2.8-.4,1.5l-.5,2.1-.9,3.6c-.3,1.2-.6,2.1-1.2,3.9h.2v.2Z"/>
    <path class="st0" d="M1664.2,860.7c.8-3.2.8-3.1,1.1-4.8,0,0,0-.4,0-.7h.8v.7c0,2.4.2,3.4,1.5,4.1.9.6,2.2.9,3.6.9,2.6,0,4.5-1.8,4.5-4.1s-.3-1.8-.9-2.3c-.5-.4-.8-.5-3.4-1.4-3-1-4.7-2.7-4.7-4.8s.8-2.9,2.2-4.4c1.8-2,3.9-3,6-3s2.7.3,4.6,1.1c0,.3,0,.5,0,.6l-1.1,4.4v.5h-.8c0-1,0-1.2,0-1.6,0-1.8-1.7-3.1-4.1-3.1s-3.9,1.3-3.9,3.4.5,2.3,1.3,2.8c.4.3.3.2,3.6,1.4,1.5.5,2.4.9,3,1.5.8.7,1.4,1.9,1.4,2.9,0,3.9-5.1,8.1-9.8,8.1s-3.3-.4-5-1.4v-.8Z"/>
    <path class="st0" d="M1689.8,850.2c1.5-2.9,2.3-4.1,4.3-5.9,2.3-2.1,4.5-3.3,6.2-3.3s3.4,1.5,3.4,4.5c0,4.9-2.2,10.1-5.5,13-1.1,1-2.9,2.2-4.4,3-1.7.8-2.6,1.1-3.8,1.1s-1.4-.2-2.6-.8l-.4,2-1,4.4c-.5,2-.6,2.9-.6,3.3,0,.6.2.9.8,2.2l-4.6,1.2v-.7c0-.6,0-1.2.3-2.3l.7-2.6c1.4-5.2,2.4-9.6,3.1-13.2.5-2.4,1.1-5.7,1.8-9.8,0-.7.2-1.4.2-1.9,0-1.2-.8-1.5-3.7-1.4v-.7c1.6,0,3.1-.3,4.9-.7l2.4-.6h.4c0,0,0,0,.2.2v.5c0,.4-.3.8-.4,1.5v.6c0,0-.3.6-.3.6v.6l-.7,2.6c-.2.8-.4,1.5-.9,2.9h.2v-.3ZM1691.8,848.2c-1,1.5-1.6,2.7-2.4,5.2,0,.3,0-.8-.8,3.3-.2,1-.4,1.8-.4,2.1,0,1.1,1.3,1.8,3.7,1.8s3.4-.9,4.7-2.7c2-2.6,3.2-6.6,3.4-11,0-2.2-.6-3.2-2.1-3.2s-4.1,1.8-6.1,4.5h0Z"/>
    <path class="st0" d="M1719.7,853.8c-4.3,5-5.4,6.1-7.4,7.7-.9.8-2,1.1-2.9,1.1-1.5,0-2.5-1.4-2.5-3.5s1.4-7.7,3.1-10.7c1.4-2.4,3.1-4.3,5.3-5.7,2-1.3,4-2.1,5.3-2.1s1,0,2.6.6c.6,0,.9.2,1.2.2s.8,0,1.3-.2h.3s.2,0,.2.2h0c0,0-.3,1-.3,1l-.2.6-.6,2-1.6,5.8-.5,2.2-.3,1.3c-.4,1.6-.7,3-.8,4.3,0,.6.3.9.8.9,1,0,2-.7,4-2.6l.2.8c-3.1,3-5.9,4.9-7.4,4.9s-1.2-.7-1.2-2.1.3-2.4.9-4.4l.7-2.2h-.2ZM1713.8,846.1c-1.8,3.3-3.2,8-3.2,10.6s.6,2.4,1.5,2.4,2-.8,3.9-2.6c2.5-2.2,3.4-3.6,4.3-5.9.9-2.4,1.7-5.6,1.7-6.5s-.9-1.9-2.6-1.9-4.3,1.5-5.7,3.9h0Z"/>
    <path class="st0" d="M1731.1,862.6l2-8.2c.8-3,1.3-5.7,1.8-8.2,0-.7.2-1.3.2-1.9,0-1.2-.8-1.5-3.6-1.4v-.7c1.6,0,3.1-.3,4.9-.7l2.4-.6h.4c0,0,0,0,.2.2v.2c0,.1,0-.2-.4,1.7l-.9,3.5c-.4,1.4-.6,2.1-1.3,3.7h.2c4.1-6.6,6.4-9.2,8.2-9.2s2.1.9,2.1,2.1-.6,2-2,2.6c-.8-.8-1.4-1.1-2.1-1.1s-1.5.5-2.5,1.5c-1.9,2-3.9,5.8-4.4,8.1l-1.8,7.8-3.6.7h.2Z"/>
    <path class="st0" d="M1761.6,857.6c-3,3.1-6.4,4.9-9.2,4.9s-5.4-2.2-5.4-6.3,1.4-7.4,3.4-10.1c2.2-3,5.5-5.1,8.8-5.2,2.1,0,3.5,1,3.5,3,0,4-4.3,7-11.7,8.5l-.2,1.8c0,1.9,0,3.4.8,4.6.6,1,1.4,1.4,2.8,1.4,2.2,0,4.5-1.1,7.2-3.5v1h0ZM1759.3,844.5c0-1.5-.7-2.3-2-2.3-2.9,0-5.5,3.8-6.5,9.2,5.5-1.1,8.4-3.5,8.4-6.9h0Z"/>
    <path class="st0" d="M1772.1,852.6c1.5-3,3.2-5.4,5.2-7.4,2.4-2.3,5.6-4.3,7.3-4.4,1,0,1.7.6,1.7,1.8s0,1.2-.2,1.8l-2.3,9.7-.2.7c-.7,3-.5,2.5-.5,2.3,0,.8-.2,1.1-.2,1.5,0,.6.3,1,.8,1,.9,0,2.6-1,4.1-2.5l.2.9c-3,2.7-6,4.5-7.3,4.5s-1.5-.7-1.5-1.8,0-1,.2-1.5l2.2-8.8c1.1-4.4.8-3.2.9-3.9.2-.7.2-1.1.2-1.5,0-.7-.2-1-.7-1.1-1.4-.2-4.4,2-6.6,4.8s-3.4,5.7-4.1,9.5l-.2,1c-.5,2.6-.3,1.8-.5,2.5l-3.7.7c1.6-6.3,1.8-7.1,3-13.3.3-1.8.2-1.1.4-2,.4-2,.4-2.2.4-3.1s-.8-1.5-3.7-1.4v-.7c1.6,0,3.1-.3,4.9-.7l2.4-.6h.4c0,0,0,0,.2.2s0,0,0,.2v.3c0,.2-.2.8-.4,1.5l-.5,2.1-.9,3.6c-.3,1.2-.6,2.1-1.2,3.9h.2v.2Z"/>
    <path class="st0" d="M1806.4,857.9c-1,1-1.8,1.7-3,2.5-2.5,1.8-4.2,2.4-6.4,2.4-3.5,0-5.7-2.3-5.7-5.9s1.3-7.1,3.2-10c2.3-3.6,6-6,9.3-6s4.6,1.3,4.8,2.8c.2,1.4-1,2.4-2.9,2.6-.6-1.3-.8-1.8-1.1-2.2-.7-.8-1.8-1.4-2.9-1.4-2.3,0-3.8,1.5-5.2,5.1-1.1,2.8-1.5,4.9-1.5,7.7s.7,3.5,1.5,4.3c.7.6,1.5.8,2.6.8,2.1,0,3.5-.7,7.1-3.5l.2.9h0Z"/>
    <path class="st0" d="M1813,866.1c-2.6,3.3-1.8,2.3-2.3,2.9-1.8,2.1-2.7,3-4.8,4.7-1.6-.4-2.2-.6-3.1-1.2,5.1-3,9.2-6.6,12.2-10.5,0-4.7-.2-7.9-.9-14.9v-.8c0-1.7-.5-2.4-1.1-2.4s-1.8.7-3.2,2l-.6-.6c.9-.8,2.6-2.2,3.8-3.1,1.3-1,2.1-1.3,2.8-1.4s1.2.5,1.3,1.6c0,.3,0,1.3.2,2.3l.2,4,.2,4,.2,4s0,.8.2,1.6c.8-1.2,1.1-1.5,2.1-2.7l2.1-2.6c1.4-1.7,2.6-3.5,3.1-4.6.5-.9.6-1.5.6-2.3s-.3-1.9-1.2-3.6c.9-1.3,1.6-1.6,2.6-1.6s1.8,1,1.8,2.4-.6,3-1.9,4.7l-14.2,17.9v.2Z"/>
  </g>
  <g>
    <path class="st0" d="M85.9,454.6h50c48.3,0,81.6,33.4,81.6,76.6v.4c0,43.2-33.4,76.6-81.6,76.6h-50s0-153.6,0-153.6ZM136.1,601.4c44.1,0,73.7-30.7,73.7-69.6v-.4c0-38.8-29.6-70-73.9-70h-42.6v140h42.8Z"/>
    <path class="st0" d="M276.3,454.6h7.5v153.6h-7.5v-153.6Z"/>
    <path class="st0" d="M339.4,585.9l5.1-5.5c16.2,15.4,34.2,23.3,56.6,23.3s43.9-14.5,43.9-33.8v-.4c0-18-10.3-27.6-47.4-35.3-37.5-7.5-52.2-19.3-52.2-41.5v-.4c0-21.9,20.9-39.7,49.8-39.7s37.7,6.6,52.2,18l-4.6,5.9c-14-11.2-30.1-17.1-48.1-17.1s-41.9,15.1-41.9,32.3v.4c0,17.8,10.3,27.6,47.6,35.3,38.2,7.7,52,20,52,41.5v.4c0,23.7-20.4,41.3-51.8,41.3s-43.9-8.6-61.2-24.6h0Z"/>
    <path class="st0" d="M496.8,531.9v-.4c0-43.2,32-79.4,75.9-79.4s44.1,10.5,59,24.4l-5.3,5.5c-12.7-12.3-28.3-23-54-23-39.1,0-68,32.7-68,72.4v.4c0,39.7,29.4,72.4,68.2,72.4s41-10.5,54.6-24.6l5.3,5c-14.5,14.7-33.1,26.3-60.3,26.3-43.5,0-75.5-35.3-75.5-79h0Z"/>
    <path class="st0" d="M682.4,454.6h7.5v146.8h92.6v6.8h-100.1v-153.6Z"/>
    <path class="st0" d="M1165.7,454.6h7l64.9,93.5,64.7-93.5h7v153.6h-7.5v-140.7l-64.3,92.2h-.4l-64.3-92.2v140.7h-7.2v-153.6h.1Z"/>
    <path class="st0" d="M1378.1,454.6h108.2v6.8h-100.7v66h91.1v6.8h-91.1v67.2h101.8v6.8h-109.3v-153.6Z"/>
    <path class="st0" d="M1547.1,454.6h63.4c19.5,0,34.4,5.5,43.9,14.7,7,7.2,11.2,17.1,11.2,28.5v.4c0,25.9-20,41-48.3,43.5l51.1,66.5h-9.5l-50-65.6h-54.4v65.6h-7.5v-153.6h.1ZM1608.5,535.8c31.6,0,49.6-15.4,49.6-37.1v-.4c0-23-17.8-36.9-48-36.9h-55.5v74.4h54,0Z"/>
  </g>
  <path class="st1" d="M959.2,699.9c-90.4,0-164-73.6-164-164s73.6-164,164-164,164,73.6,164,164-73.6,164-164,164h0Z"/>
  <path d="M904.9,453.5h7l72.9,154.7h-8.1l-20.8-44.8h-95l-21.1,44.8h-7.7l72.8-154.7h0ZM952.5,556.7l-44.3-94.4-44.1,94.4h88.4,0Z"/>
  <path d="M1037.1,454.6h7.5v153.6h-7.5v-153.6Z"/>
  <path d="M959.2,367.9c-92.6,0-168,75.4-168,168s75.4,168,168,168,168-75.4,168-168-75.4-168-168-168ZM799.2,535.9c0-88.2,71.8-160,160-160s88.4,19.9,117.6,51.7l-226,226c-31.7-29.3-51.7-71.2-51.7-117.6ZM959.2,695.9c-38.2,0-73.4-13.5-100.9-35.9l225-225c22.5,27.6,35.9,62.7,35.9,100.9,0,88.2-71.8,160-160,160Z"/>
</svg>